<?xml version="1.0" encoding="UTF-8" standalone="no"?>
<!-- Created with Inkscape (http://www.inkscape.org/) -->

<svg
   xmlns:dc="http://purl.org/dc/elements/1.1/"
   xmlns:cc="http://creativecommons.org/ns#"
   xmlns:rdf="http://www.w3.org/1999/02/22-rdf-syntax-ns#"
   xmlns:svg="http://www.w3.org/2000/svg"
   xmlns="http://www.w3.org/2000/svg"
   xmlns:sodipodi="http://sodipodi.sourceforge.net/DTD/sodipodi-0.dtd"
   xmlns:inkscape="http://www.inkscape.org/namespaces/inkscape"
   width="106.45608"
   height="98.198074"
   id="svg2"
   version="1.1"
   inkscape:version="0.48.4 r9939"
   sodipodi:docname="title.svg">
  <defs
     id="defs4" />
  <sodipodi:namedview
     id="base"
     pagecolor="#ffffff"
     bordercolor="#666666"
     borderopacity="1.0"
     inkscape:pageopacity="0.0"
     inkscape:pageshadow="2"
     inkscape:zoom="2.8"
     inkscape:cx="27.418653"
     inkscape:cy="27.740158"
     inkscape:document-units="px"
     inkscape:current-layer="layer1"
     showgrid="false"
     fit-margin-top="1"
     fit-margin-left="1"
     fit-margin-right="1"
     fit-margin-bottom="1"
     inkscape:window-width="1366"
     inkscape:window-height="744"
     inkscape:window-x="0"
     inkscape:window-y="24"
     inkscape:window-maximized="1" />
  <metadata
     id="metadata7">
    <rdf:RDF>
      <cc:Work
         rdf:about="">
        <dc:format>image/svg+xml</dc:format>
        <dc:type
           rdf:resource="http://purl.org/dc/dcmitype/StillImage" />
        <dc:title></dc:title>
      </cc:Work>
    </rdf:RDF>
  </metadata>
  <g
     inkscape:label="Layer 1"
     inkscape:groupmode="layer"
     id="layer1"
     transform="translate(-19.346231,-29.99342)">
    <g
       style="font-size:40px;font-style:normal;font-variant:normal;font-weight:normal;font-stretch:normal;line-height:125%;letter-spacing:0px;word-spacing:0px;fill:#ffffff;fill-opacity:1;stroke:none;font-family:Pinyon Script;-inkscape-font-specification:Pinyon Script"
       id="text3223">
      <path
         d="m 30.912638,42.966076 c -8e-6,1.419288 0.690095,2.128923 2.070312,2.128906 1.757801,1.7e-5 3.606758,-0.833316 5.546875,-2.5 1.132796,-0.976542 1.914045,-1.855448 2.34375,-2.636719 0.42967,-0.794248 0.664044,-1.334612 0.703125,-1.621093 0.05206,-0.429664 0.117169,-0.644508 0.195313,-0.644532 0.130189,2.4e-5 0.195293,0.234399 0.195312,0.703125 -1.9e-5,0.455752 -0.117206,1.002627 -0.351562,1.640625 -0.234394,0.625021 -0.559914,1.223979 -0.976563,1.796875 -0.403663,0.572936 -0.878923,1.10679 -1.425781,1.601563 -0.53387,0.481789 -1.113296,0.904965 -1.738281,1.269531 -1.315117,0.755225 -2.539075,1.132829 -3.671875,1.132813 -1.132822,1.6e-5 -1.992196,-0.227849 -2.578125,-0.683594 -0.585945,-0.468733 -0.878914,-1.119774 -0.878907,-1.953125 -7e-6,-0.846335 0.240878,-1.686178 0.722657,-2.519531 0.494783,-0.833312 1.197907,-1.627582 2.109375,-2.382813 1.953113,-1.627579 4.479152,-2.812474 7.578125,-3.554687 1.835918,-0.41664 4.186176,-0.624973 7.050781,-0.625 0.937474,2.7e-5 2.057265,0.07815 3.359375,0.234375 2.51299,0.299506 4.218718,0.449245 5.117187,0.449218 0.911425,2.7e-5 1.744757,-0.08461 2.5,-0.253906 0.755172,-0.169243 1.425745,-0.410129 2.011719,-0.722656 1.132774,-0.59893 2.011679,-1.432262 2.636719,-2.5 0.143189,-0.221324 0.279907,-0.332001 0.410156,-0.332031 0.130168,3e-5 0.195272,0.03909 0.195313,0.117187 -4.1e-5,0.14326 -0.05864,0.279978 -0.175782,0.410156 -2.096392,3.346381 -5.442743,5.019557 -10.039062,5.019532 -1.1068,2.5e-5 -2.513049,-0.104142 -4.21875,-0.3125 -3.307315,-0.40362 -5.481792,-0.605443 -6.523438,-0.605469 -1.041685,2.6e-5 -2.057309,0.104193 -3.046875,0.3125 -0.976578,0.195338 -1.914077,0.468775 -2.8125,0.820312 -0.89845,0.351588 -1.731783,0.768254 -2.5,1.25 -0.76824,0.468774 -1.438812,0.976586 -2.011718,1.523438 -1.197925,1.158875 -1.796883,2.304707 -1.796875,3.4375 m -7.753907,15.175781 c 0,0.286462 -0.110677,0.527347 -0.332031,0.722656 -0.221353,0.195316 -0.501301,0.292972 -0.839844,0.292969 -0.351561,3e-6 -0.638019,-0.0651 -0.859375,-0.195312 l 0,0.09766 c 2e-6,0.625002 0.377606,1.145835 1.132813,1.5625 0.729167,0.403646 1.516926,0.605469 2.363281,0.605469 0.846352,0 1.575518,-0.05859 2.1875,-0.175782 0.624996,-0.117186 1.269527,-0.33203 1.933594,-0.644531 0.664056,-0.312498 1.35416,-0.742185 2.070312,-1.289062 0.729159,-0.559893 1.490877,-1.276038 2.285157,-2.148438 1.679676,-1.82291 3.463528,-4.322907 5.351562,-7.5 0.03905,-0.07811 0.0716,-0.130196 0.09766,-0.15625 -4.401052,0.976574 -7.571622,2.34376 -9.511718,4.101563 -0.572922,0.50782 -0.950526,0.924486 -1.132813,1.25 -0.260421,0.442715 -0.436202,0.664069 -0.527344,0.664062 -0.09115,7e-6 -0.136722,-0.03254 -0.136718,-0.09766 -4e-6,-0.156243 0.04557,-0.286452 0.136718,-0.390625 0.494787,-1.184888 1.80338,-2.376293 3.925782,-3.574219 2.174469,-1.210926 4.720039,-2.122383 7.636718,-2.734375 0.03905,1.3e-5 0.0716,-0.0065 0.09766,-0.01953 2.148419,-3.359359 4.661437,-6.048158 7.539062,-8.066406 2.395808,-1.679665 4.394504,-2.519508 5.996094,-2.519532 0.299449,2.4e-5 0.449189,0.0456 0.449219,0.136719 -3e-5,0.09117 -0.05211,0.149763 -0.15625,0.175781 -0.104197,0.01304 -0.436227,0.10419 -0.996094,0.273438 -0.546903,0.156273 -1.237007,0.501325 -2.070313,1.035156 -0.833359,0.533876 -1.686222,1.197938 -2.558593,1.992188 -1.770856,1.627622 -3.483094,3.704443 -5.136719,6.230468 1.835917,-0.468735 3.209613,-0.86587 4.121094,-1.191406 0.273414,-0.182276 0.494768,-0.442693 0.664062,-0.78125 0.520809,1.6e-5 1.113257,0.03908 1.777344,0.117188 0.677057,0.07814 1.074192,0.136734 1.191406,0.175781 -1.510442,0.690119 -2.890649,1.959649 -4.140625,3.808594 -0.403668,0.585948 -0.683615,1.067719 -0.839844,1.445312 -0.14325,0.377614 -0.240906,0.585947 -0.292968,0.625 -0.03908,0.03907 -0.09117,0.0586 -0.15625,0.05859 -0.156271,10e-6 -0.234396,-0.09114 -0.234375,-0.273438 -2.1e-5,-0.286448 0.227843,-0.924468 0.683593,-1.914062 0.455707,-1.002591 0.846332,-1.751289 1.171875,-2.246094 -0.520855,0.169285 -1.191428,0.345066 -2.011718,0.527344 l -2.5,0.546875 c -1.236997,2.17449 -2.623714,4.192717 -4.160157,6.054687 -1.536471,1.861985 -2.96225,3.287765 -4.277343,4.277344 -2.434904,1.835939 -5.175786,2.753906 -8.222657,2.753906 -1.171875,0 -2.20703,-0.279947 -3.105468,-0.839843 -0.950519,-0.585936 -1.425779,-1.256509 -1.425782,-2.011719 3e-6,-0.807288 0.397138,-1.321611 1.191407,-1.542969 0.221355,-0.05208 0.436199,-0.07812 0.644531,-0.07813 0.208334,5e-6 0.423178,0.07162 0.644531,0.214844 0.221354,0.143233 0.332031,0.358077 0.332031,0.644531"
         style="fill:#ffffff;fill-opacity:1"
         id="path4087" />
      <path
         d="m 51.752481,60.21217 c -3e-6,0.598959 0.253903,0.898438 0.761719,0.898437 0.520829,10e-7 1.087235,-0.156249 1.699219,-0.46875 0.624993,-0.312498 1.256503,-0.709633 1.894531,-1.191406 0.651033,-0.481768 1.289054,-1.015622 1.914063,-1.601563 l 1.699218,-1.699218 c 0.520822,-0.533848 0.97004,-1.015619 1.347657,-1.445313 l 0.800781,-0.898437 0.390625,0.332031 c -0.24741,0.221361 -0.57944,0.566413 -0.996094,1.035156 l -1.40625,1.5625 c -3.177091,3.359377 -5.911464,5.039063 -8.203125,5.039063 -0.74219,0 -1.341148,-0.182292 -1.796875,-0.546875 -0.442709,-0.364583 -0.664063,-0.852864 -0.664062,-1.464844 -1e-6,-1.9401 2.825517,-4.804681 8.476562,-8.59375 -2.760423,-0.455718 -4.667973,-0.917957 -5.722656,-1.386719 -0.859378,1.770844 -2.180991,3.574227 -3.964844,5.410156 -0.416666,0.429694 -0.670572,0.664069 -0.761719,0.703125 -0.104165,0.03907 -0.169269,0.07162 -0.195312,0.09766 -0.02604,0.01303 -0.04557,-0.02604 -0.05859,-0.117188 -0.01302,-0.09114 -0.01302,-0.156244 0,-0.195312 0.01302,-0.05208 0.03906,-0.104161 0.07813,-0.15625 0.61198,-0.690098 1.178386,-1.354159 1.699219,-1.992188 1.210936,-1.510407 2.102862,-2.851551 2.675781,-4.023437 -0.468752,-0.299467 -0.735679,-0.618477 -0.800781,-0.957032 -0.06511,-0.338528 -0.06511,-0.651027 0,-0.9375 0.07812,-0.299464 0.19531,-0.566391 0.351562,-0.800781 0.338539,-0.507797 0.729164,-0.761703 1.171875,-0.761719 0.820308,1.6e-5 1.230464,0.299495 1.230469,0.898438 -5e-6,0.299494 -0.0586,0.5534 -0.175781,0.761719 l -0.351563,0.605468 c -0.234379,0.299493 -0.351566,0.644544 -0.351562,1.035157 -4e-6,0.234387 0.494787,0.455741 1.484375,0.664062 1.002598,0.208345 1.712232,0.351574 2.128906,0.429688 0.91145,0.169282 1.634105,0.266938 2.167969,0.292968 0.364573,0.01303 0.546865,0.110688 0.546875,0.292969 -1e-5,0.117198 -0.214854,0.345063 -0.644531,0.683594 -0.416676,0.338551 -0.878915,0.748707 -1.386719,1.230469 -0.50782,0.481779 -1.002612,0.989591 -1.484375,1.523437 -0.481777,0.52084 -0.937506,1.054694 -1.367188,1.601563 -0.429692,0.54688 -0.807296,1.074223 -1.132812,1.582031 -0.703129,1.093753 -1.054691,1.946617 -1.054688,2.558594"
         style="fill:#ffffff;fill-opacity:1"
         id="path4089" />
      <path
         d="m 69.525919,61.77467 c -1.30209,0 -1.953131,-0.403646 -1.953125,-1.210938 -6e-6,-0.664061 0.377598,-1.497393 1.132812,-2.5 l 1.230469,-1.5625 -0.195312,-0.07813 c -2.187506,2.695315 -4.251306,4.388022 -6.191407,5.078125 -0.533855,0.182292 -0.996094,0.273438 -1.386718,0.273438 -1.601562,0 -2.402342,-0.852864 -2.402344,-2.558594 2e-6,-2.005204 0.800782,-3.919264 2.402344,-5.742188 2.369789,-2.760405 4.752599,-4.394518 7.148437,-4.902343 0.716138,-0.143216 1.328116,-0.214831 1.835938,-0.214844 0.507802,1.3e-5 0.904937,0.03908 1.191406,0.117187 0.299468,0.06512 0.559885,0.162774 0.78125,0.292969 0.468738,0.299492 0.703113,0.670585 0.703125,1.113281 -1.2e-5,0.429699 -0.07814,0.839855 -0.234375,1.230469 l 1.914062,-2.363281 c 0.351549,0.104179 0.677069,0.156263 0.976563,0.15625 0.768214,1.3e-5 1.321598,-0.02603 1.660156,-0.07813 l -6.582031,7.929687 c -1.562508,1.82292 -2.343758,3.105471 -2.34375,3.847657 -8e-6,0.416667 0.247388,0.625 0.742187,0.625 0.494783,0 1.061189,-0.149739 1.699219,-0.449219 0.651031,-0.299478 1.295562,-0.683592 1.933594,-1.152344 0.638008,-0.468747 1.256497,-0.98958 1.855469,-1.5625 0.611965,-0.572912 1.17186,-1.132808 1.679687,-1.679687 0.520818,-0.546869 0.976546,-1.054681 1.367188,-1.523438 l 0.9375,-1.054687 0.410156,0.332031 -0.996094,1.132812 c -3.750013,4.33594 -6.855479,6.503907 -9.316406,6.503907 m -5.410156,-7.03125 c -1.835938,2.226567 -2.753906,4.049482 -2.753907,5.46875 10e-7,0.651042 0.292969,0.976563 0.878907,0.976562 1.901039,10e-7 4.641922,-2.102862 8.222656,-6.308594 l 1.640625,-1.972656 c 0.781239,-1.184886 1.171863,-2.04426 1.171875,-2.578125 -1.2e-5,-0.911446 -0.45574,-1.367175 -1.367188,-1.367187 -1.236988,1.2e-5 -3.01433,1.054699 -5.332031,3.164062 -0.794275,0.729176 -1.614586,1.601571 -2.460937,2.617188"
         style="fill:#ffffff;fill-opacity:1"
         id="path4091" />
      <path
         d="m 80.0142,61.364513 c -0.351563,-0.0651 -0.742187,-0.09766 -1.171875,-0.09766 -0.690103,10e-7 -1.295571,0.0651 -1.816406,0.195313 l 6.777344,-9.6875 c 0.846349,-1.184885 1.282546,-1.888009 1.308593,-2.109375 0.05208,-0.429675 -0.08464,-0.644519 -0.410156,-0.644532 -0.481776,1.3e-5 -1.679691,1.191418 -3.59375,3.574219 l -1.25,1.542969 c -0.104167,0.05209 -0.214844,0.02605 -0.332031,-0.07813 -0.104167,-0.11718 -0.130208,-0.201815 -0.07813,-0.253906 0.377604,-0.403638 0.80078,-0.91145 1.269531,-1.523438 0.481769,-0.62499 0.983071,-1.223948 1.503906,-1.796875 1.276038,-1.419258 2.337235,-2.128893 3.183594,-2.128906 1.432284,1.3e-5 1.888013,0.73569 1.367188,2.207031 -0.104174,0.312511 -0.332039,0.716156 -0.683594,1.210938 l -4.101563,5.703125 0.09766,0.214843 c 3.281244,-3.593742 5.61197,-5.970042 6.992187,-7.128906 1.315093,-1.093738 2.291655,-1.731758 2.929688,-1.914062 0.651028,-0.1953 1.178371,-0.292956 1.582031,-0.292969 0.416652,1.3e-5 0.768214,0.05861 1.054687,0.175781 0.299464,0.117201 0.540349,0.26694 0.722657,0.449219 0.338525,0.338554 0.501285,0.74871 0.488281,1.230469 -1.7e-5,0.468761 -0.09116,0.950531 -0.273438,1.445312 -0.169286,0.494801 -0.462255,1.080738 -0.878906,1.757813 -0.87241,1.393236 -2.343763,3.20964 -4.414062,5.449218 -0.859385,0.89844 -1.308604,1.425783 -1.347657,1.582032 -0.03907,0.14323 -0.0586,0.253907 -0.05859,0.332031 -1e-5,0.29948 0.397125,0.449219 1.191406,0.449219 0.80728,0 1.555977,-0.16276 2.246094,-0.488282 0.703111,-0.33854 1.386704,-0.761717 2.050781,-1.269531 0.677068,-0.50781 1.315088,-1.061194 1.914062,-1.660156 0.611962,-0.611975 1.158836,-1.191401 1.640625,-1.738281 0.481752,-0.55989 0.885398,-1.04166 1.210938,-1.445313 0.325501,-0.416659 0.546855,-0.690096 0.664062,-0.820312 l 0.410154,0.332031 c -0.13023,0.143237 -0.364601,0.429695 -0.703122,0.859375 -0.338562,0.429694 -0.761738,0.924485 -1.269532,1.484375 -0.49481,0.5599 -1.061215,1.152348 -1.699218,1.777344 -0.625017,0.625002 -1.289079,1.197919 -1.992188,1.71875 -1.640638,1.197917 -3.125012,1.796875 -4.453125,1.796875 -1.171884,0 -1.985686,-0.292969 -2.441406,-0.878907 -0.143237,-0.18229 -0.214852,-0.397134 -0.214844,-0.644531 -8e-6,-0.247394 0.03254,-0.527342 0.09766,-0.839844 0.07812,-0.325518 0.253898,-0.735674 0.527344,-1.230468 0.61197,-1.054683 1.477855,-2.213536 2.597656,-3.476563 1.1328,-1.263012 1.874987,-2.115876 2.226563,-2.558594 0.351549,-0.442698 0.631496,-0.826812 0.839844,-1.152343 0.39061,-0.624989 0.585922,-1.106759 0.585937,-1.445313 -1.5e-5,-0.468737 -0.312514,-0.703112 -0.9375,-0.703125 -1.289075,1.3e-5 -3.417979,1.458345 -6.386719,4.375 -1.497402,1.458341 -3.21615,3.378912 -5.15625,5.761719 L 80.0142,61.364513"
         style="fill:#ffffff;fill-opacity:1"
         id="path4093" />
      <path
         d="m 101.18608,61.579357 c 1.22395,0.130209 1.97265,0.722656 2.24609,1.777344 2.8776,-1.744792 5.55338,-4.121091 8.02734,-7.128906 l 1.97266,-2.421875 0.41016,0.332031 -2.12891,2.597656 c -1.64064,1.940107 -3.13152,3.450523 -4.47266,4.53125 -1.32813,1.067708 -2.56511,1.933592 -3.71093,2.597656 0.039,0.221352 0.0586,0.611977 0.0586,1.171875 0,0.559892 -0.21485,1.3151 -0.64453,2.265625 -0.41667,0.950515 -0.98959,1.888014 -1.71875,2.8125 -0.71615,0.92447 -1.542971,1.809886 -2.480471,2.65625 -0.937498,0.846343 -1.92057,1.588529 -2.949219,2.226563 -2.252598,1.406235 -4.270825,2.10936 -6.054687,2.109375 -0.611969,-1.5e-5 -1.048166,-0.162776 -1.308594,-0.488281 -0.260405,-0.312515 -0.390613,-0.748712 -0.390625,-1.308594 1.2e-5,-0.546888 0.325532,-1.236992 0.976562,-2.070313 0.638031,-0.820323 1.542978,-1.699228 2.714844,-2.636718 2.187506,-1.75782 5.468753,-3.860682 9.84375,-6.308594 0.0391,-0.27344 0.0586,-0.618492 0.0586,-1.035156 0,-0.403647 -0.10416,-0.735678 -0.3125,-0.996094 -0.19531,-0.260417 -0.41015,-0.390625 -0.64453,-0.390625 l -0.0391,0 c -0.40365,0.221354 -0.78776,0.416666 -1.152344,0.585937 -0.364582,0.182291 -0.670572,0.345051 -0.917968,0.488282 -0.247395,0.156248 -0.410155,0.260415 -0.488282,0.3125 -0.07812,0.0651 -0.136717,0.117186 -0.175781,0.15625 -0.07812,0.07812 -0.156248,0.117185 -0.234375,0.117187 -0.07812,-2e-6 -0.1888,-0.04557 -0.332031,-0.136719 -0.143227,-0.07813 -0.214841,-0.14323 -0.214844,-0.195312 3e-6,-0.169272 0.312502,-0.390626 0.9375,-0.664063 1.171876,-0.507812 2.083335,-1.165364 2.734375,-1.972656 0.55989,-0.690102 1.1263,-1.549476 1.69922,-2.578125 l 1.66016,-2.988281 c 0.49478,-0.89843 1.04817,-1.757804 1.66015,-2.578125 -1.41927,-0.260407 -2.48047,-0.872386 -3.18359,-1.835938 -1.22396,2.252613 -2.48698,3.912768 -3.789065,4.980469 -0.234374,0.195319 -0.390624,0.292975 -0.46875,0.292969 -0.09114,6e-6 -0.136717,-0.03255 -0.136719,-0.09766 l 1.601563,-1.953125 c 0.872391,-1.028637 1.464841,-1.835928 1.777341,-2.421875 l 0.6836,-1.308594 c -0.28646,-0.572905 -0.42969,-1.087227 -0.42969,-1.542969 0,-0.468736 0.0456,-0.833319 0.13672,-1.09375 0.0911,-0.273423 0.22135,-0.507798 0.39062,-0.703125 0.35156,-0.455714 0.74219,-0.683578 1.17188,-0.683594 0.80728,1.6e-5 1.21093,0.253922 1.21094,0.761719 -1e-5,0.312515 -0.0781,0.55991 -0.23438,0.742188 -0.14323,0.182305 -0.29948,0.351576 -0.46875,0.507812 -0.48177,0.442722 -0.72266,0.839857 -0.72266,1.191406 0,0.351575 0.0586,0.664075 0.17579,0.9375 0.1302,0.260428 0.31249,0.514334 0.54687,0.761719 0.53385,0.546885 1.20442,0.917979 2.01172,1.113281 1.1328,-1.43228 2.2591,-2.480456 3.37891,-3.144531 1.1328,-0.67707 2.08332,-1.015611 2.85156,-1.015625 1.35415,1.4e-5 2.03123,0.377618 2.03125,1.132813 -2e-5,0.664074 -0.57293,1.354178 -1.71875,2.070312 -1.22397,0.78126 -2.60418,1.243499 -4.14063,1.386719 -1.47136,3.632818 -3.30729,6.269534 -5.50781,7.910156 -0.61198,0.45573 -1.21094,0.846355 -1.79687,1.171875 m 7.46093,-9.472656 c 1.34114,-0.182282 2.52603,-0.605459 3.55469,-1.269531 0.98957,-0.624989 1.48436,-1.230457 1.48438,-1.816407 -2e-5,-0.195299 -0.10419,-0.358059 -0.3125,-0.488281 -0.19533,-0.143216 -0.46226,-0.21483 -0.80079,-0.214844 -0.32553,1.4e-5 -0.65105,0.07163 -0.97656,0.214844 -0.32553,0.130222 -0.65756,0.351575 -0.99609,0.664063 -0.76824,0.664074 -1.41928,1.634125 -1.95313,2.910156 m -7.1875,12.773437 -5.078122,3.046875 c -3.255202,2.031242 -5.507804,3.821605 -6.757813,5.371094 -0.664052,0.807279 -0.996082,1.575508 -0.996094,2.304688 1.2e-5,0.260402 0.08465,0.494777 0.253907,0.703125 0.15626,0.208318 0.46225,0.312485 0.917968,0.3125 0.455739,-1.5e-5 1.041676,-0.169286 1.757813,-0.507813 0.716153,-0.338556 1.477871,-0.800795 2.285156,-1.386719 0.794276,-0.572929 1.601567,-1.243501 2.421875,-2.011718 0.807295,-0.76824 1.562502,-1.588551 2.265625,-2.460938 1.562495,-1.940111 2.539065,-3.730473 2.929685,-5.371094"
         style="fill:#ffffff;fill-opacity:1"
         id="path4095" />
    </g>
    <g
       style="font-size:33.69967270000000070px;font-style:normal;font-variant:normal;font-weight:normal;font-stretch:normal;line-height:125%;letter-spacing:0px;word-spacing:0px;fill:#ffffff;fill-opacity:1;stroke:none;font-family:Pinyon Script;-inkscape-font-specification:Pinyon Script"
       id="text3227">
      <path
         d="m 70.056798,118.5362 c 0.120664,0.12067 0.180999,0.21391 0.181004,0.27974 -5e-6,0.0768 -0.06583,0.11518 -0.197459,0.11518 -0.449773,0 -0.817265,-0.67465 -1.102479,-2.02395 -0.164554,-0.70208 -0.257798,-1.43707 -0.279734,-2.20496 l 0,-0.47719 c -1.469975,-0.15358 -2.660213,-0.63078 -3.570717,-1.43158 -0.877595,-0.7679 -1.327363,-1.72228 -1.349303,-2.86316 -0.04388,-1.38221 0.378463,-2.70957 1.267028,-3.98209 1.316392,-1.89779 3.29098,-3.15933 5.923771,-3.78463 0.855648,-0.19745 1.755183,-0.29618 2.698606,-0.29619 l 0.09873,0 c -0.296197,-0.40587 -0.510111,-0.8721 -0.641742,-1.39867 -1.722288,-0.37296 -3.12644,-0.954367 -4.212459,-1.744218 -1.075058,-0.800789 -1.848438,-1.733234 -2.320143,-2.797336 -0.06582,-0.120651 -0.09873,-0.25229 -0.09873,-0.394918 -2e-6,-0.14259 0.04936,-0.213895 0.148094,-0.213914 0.109698,1.9e-5 0.219397,0.131658 0.329099,0.394918 0.998261,2.237886 3.022214,3.674947 6.071865,4.311188 -0.01098,-0.05484 -0.01646,-0.115169 -0.01645,-0.181003 -9e-6,-0.0658 -9e-6,-0.131625 0,-0.197459 -0.02195,-1.634506 0.493638,-3.126417 1.546762,-4.475738 1.469961,-1.87584 3.515854,-3.109957 6.137684,-3.702357 0.78982,-0.186466 1.568685,-0.27971 2.336599,-0.279733 1.777111,2.3e-5 3.159323,0.318151 4.146639,0.954385 0.987272,0.625308 1.480919,1.502903 1.480943,2.632787 -2.4e-5,0.844704 -0.307182,1.640025 -0.921476,2.385963 -0.614339,0.735003 -1.442569,1.376744 -2.484692,1.925226 -2.270797,1.184769 -4.958431,1.777149 -8.06291,1.777129 -0.965367,2e-5 -1.864902,-0.0548 -2.698607,-0.16455 0.10969,0.42784 0.290694,0.83922 0.543013,1.23412 1.075043,0.12068 1.886818,0.34008 2.435327,0.6582 0.559454,0.30717 0.844673,0.63078 0.855656,0.97084 -1.3e-5,0.35105 -0.268777,0.52657 -0.806291,0.52656 -1.173796,1e-5 -2.270789,-0.54301 -3.290983,-1.62904 -2.128177,0.23038 -4.13019,1.19573 -6.006046,2.89606 -1.151846,1.0641 -1.958137,2.18303 -2.418873,3.35681 -0.230369,0.60335 -0.340069,1.26703 -0.329098,1.99104 0.02194,0.72402 0.301672,1.38222 0.839201,1.97459 0.548495,0.58141 1.3493,0.95439 2.402418,1.11894 0.175515,-2.01847 0.97632,-3.82302 2.402418,-5.41367 1.458995,-1.63451 3.071575,-2.45178 4.837746,-2.45178 0.691095,0 1.288956,0.22489 1.793586,0.67465 0.515574,0.44977 0.773367,1.04215 0.773381,1.77713 -1.4e-5,0.73499 -0.224897,1.47546 -0.674651,2.22141 -0.449781,0.73499 -1.069582,1.37673 -1.859406,1.92523 -1.700351,1.16281 -3.773669,1.74422 -6.219959,1.74422 l -0.592377,-0.0164 c -0.01097,0.0877 -0.01646,0.17003 -0.01645,0.24682 l 0,0.24682 c -5e-6,1.11894 0.186484,2.15011 0.559467,3.09353 0.131634,0.35103 0.252303,0.5814 0.362008,0.6911 m 4.344099,-18.28141 c 0.614306,0.0878 1.382202,0.13165 2.303688,0.13164 0.932432,10e-6 1.831967,-0.0603 2.698607,-0.181 0.86661,-0.13163 1.711295,-0.318119 2.534057,-0.559472 0.833698,-0.241324 1.618048,-0.537512 2.353053,-0.888566 0.734966,-0.351022 1.376708,-0.751425 1.925226,-1.201209 1.206671,-0.987277 1.810018,-2.078786 1.810041,-3.274529 -2.3e-5,-0.778845 -0.394941,-1.415101 -1.184754,-1.90877 -0.822768,-0.515565 -1.760697,-0.773359 -2.813791,-0.773381 -1.042163,2.2e-5 -1.936213,0.131662 -2.682152,0.394918 -0.745972,0.2633 -1.464503,0.614338 -2.155594,1.053115 -0.680151,0.438818 -1.310922,0.943435 -1.892316,1.513852 -0.581419,0.570456 -1.086036,1.168318 -1.513852,1.793586 -0.921486,1.31641 -1.382223,2.539558 -1.382213,3.669446 l 0,0.23037 m 0.97084,2.17205 c 0.756914,0.85567 1.530295,1.28349 2.320143,1.28348 0.175506,1e-5 0.263266,-0.0548 0.263279,-0.16455 -1.3e-5,-0.10969 -0.07132,-0.21938 -0.213914,-0.32909 -0.131652,-0.12066 -0.312656,-0.23585 -0.543012,-0.34556 -0.53754,-0.2523 -1.146371,-0.40039 -1.826496,-0.44428 m -6.203504,11.41971 c 0.219394,0.0219 0.532037,0.0329 0.93793,0.0329 0.405882,0 0.915984,-0.0987 1.530307,-0.29619 0.61431,-0.19745 1.212171,-0.45525 1.793586,-0.77338 0.592368,-0.32909 1.14635,-0.70207 1.661947,-1.11893 0.526547,-0.42783 0.987284,-0.87211 1.382213,-1.33285 0.844673,-0.98729 1.267016,-1.85392 1.267029,-2.59988 -1.3e-5,-0.46073 -0.170047,-0.81177 -0.510102,-1.05311 -0.340081,-0.24133 -0.806303,-0.362 -1.398669,-0.36201 -0.592387,1e-5 -1.267038,0.18101 -2.023954,0.54301 -0.745965,0.35105 -1.448041,0.85566 -2.10623,1.51385 -1.480948,1.50289 -2.325633,3.31842 -2.534057,5.44658"
         style="fill:#ffffff;fill-opacity:1"
         id="path4076" />
      <path
         d="m 81.558786,113.27063 c 10e-7,0.36201 0.26328,0.54301 0.789836,0.54301 0.526558,0 1.086024,-0.13712 1.678402,-0.41137 0.603345,-0.28522 1.195722,-0.64174 1.777131,-1.06957 0.592374,-0.42783 1.16281,-0.89405 1.711311,-1.39867 0.548493,-0.51558 1.047625,-1.00374 1.497398,-1.46449 l 1.135389,-1.21766 c 0.307151,-0.35103 0.51558,-0.5814 0.625287,-0.69111 l 0.329098,0.27974 c -0.120677,0.12067 -0.34556,0.36201 -0.674651,0.72401 -0.318136,0.36202 -0.713053,0.77887 -1.184754,1.25058 -0.460744,0.47171 -0.981816,0.97084 -1.563218,1.49739 -0.570441,0.52656 -1.168302,1.00924 -1.793586,1.44804 -1.459004,1.00923 -2.737001,1.51385 -3.833996,1.51385 -0.460736,0 -0.839198,-0.12615 -1.135389,-0.37846 -0.307156,-0.25231 -0.460735,-0.52107 -0.460738,-0.80629 3e-6,-0.29619 0.01646,-0.53204 0.04937,-0.70757 0.02194,-0.17551 0.07679,-0.37297 0.164549,-0.59237 0.08776,-0.23037 0.213916,-0.49365 0.378463,-0.78984 0.164552,-0.30715 0.38395,-0.67465 0.658197,-1.10248 l 2.517603,-3.71881 12.719651,-18.182684 c 0.789822,0.109725 1.552232,0.109725 2.287234,0 -10.465334,14.546164 -15.884481,22.098964 -16.257459,22.658424 -0.372978,0.5485 -0.647226,0.96536 -0.822746,1.25057 -0.175518,0.27425 -0.307157,0.49914 -0.394918,0.67465 -0.131638,0.26328 -0.197458,0.49365 -0.197459,0.69111"
         style="fill:#ffffff;fill-opacity:1"
         id="path4078" />
      <path
         d="m 99.363007,99.366224 c -0.153587,0.142624 -0.329106,0.257809 -0.526557,0.345553 -0.197467,0.07681 -0.422351,0.115199 -0.674652,0.115185 -0.252316,1.4e-5 -0.471714,-0.09323 -0.658196,-0.279734 -0.175526,-0.197444 -0.263286,-0.416843 -0.263279,-0.658196 -7e-6,-0.241324 0.04387,-0.455237 0.131639,-0.641742 0.08775,-0.186473 0.208422,-0.351022 0.362009,-0.493648 0.318121,-0.329081 0.663674,-0.49363 1.036659,-0.493647 0.38394,1.7e-5 0.663673,0.104231 0.839201,0.312643 0.18648,0.197476 0.279725,0.416874 0.279734,0.658197 -9e-6,0.241354 -0.04937,0.455268 -0.148094,0.641742 -0.08777,0.186504 -0.213923,0.351053 -0.378464,0.493647 M 88.914134,113.30354 c 2e-6,0.34007 0.323615,0.5101 0.970841,0.5101 0.647226,0 1.256058,-0.14809 1.826495,-0.44428 0.581406,-0.29619 1.162812,-0.66368 1.744222,-1.10248 0.592373,-0.44977 1.16281,-0.93793 1.711311,-1.46449 l 1.480943,-1.48094 c 0.438791,-0.46073 0.800799,-0.85565 1.086025,-1.18475 0.285211,-0.34007 0.455245,-0.53753 0.510102,-0.59238 l 0.329098,0.29619 c -0.109707,0.1097 -0.318136,0.34556 -0.625286,0.70756 -0.296196,0.35104 -0.669174,0.7679 -1.118935,1.25057 -0.449773,0.47171 -0.95439,0.97085 -1.513852,1.4974 -0.559472,0.52656 -1.146363,1.00924 -1.760677,1.44803 -1.415124,1.02021 -2.654727,1.53031 -3.718811,1.53031 -0.680135,0 -1.223147,-0.12067 -1.629037,-0.36201 -0.405885,-0.25231 -0.608829,-0.53752 -0.608832,-0.85565 3e-6,-0.31813 0.03291,-0.60335 0.09873,-0.85566 0.06582,-0.25231 0.186492,-0.55398 0.362009,-0.90502 0.175521,-0.35104 0.422345,-0.76241 0.740471,-1.23412 0.30716,-0.4717 0.713048,-1.03665 1.217664,-1.69486 0.493648,-0.65819 1.096994,-1.4206 1.810041,-2.28723 l 2.534057,-2.99479 c 0.131636,0.0329 0.400399,0.0494 0.806291,0.0494 l 0.773381,0 c 0.285214,1e-5 0.515582,-0.011 0.691107,-0.0329 -3.631054,4.33314 -5.671462,6.80137 -6.12123,7.40471 -0.460737,0.59238 -0.800805,1.05861 -1.020204,1.39867 -0.383947,0.58141 -0.575921,1.04763 -0.575923,1.39867"
         style="fill:#ffffff;fill-opacity:1"
         id="path4080" />
      <path
         d="m 99.346552,114.10983 c 1.031168,0.1097 1.661948,0.60883 1.892318,1.4974 2.42435,-1.46997 4.67867,-3.47199 6.76297,-6.00605 l 1.66195,-2.04041 0.34555,0.27974 -1.79359,2.1885 c -1.38222,1.63453 -2.63828,2.90704 -3.76817,3.81754 -1.11894,0.89954 -2.16109,1.62904 -3.12644,2.18851 0.0329,0.18648 0.0494,0.51558 0.0494,0.98729 -10e-6,0.47171 -0.18101,1.10796 -0.54302,1.90877 -0.35104,0.8008 -0.833714,1.59064 -1.448029,2.36951 -0.603347,0.77886 -1.299938,1.52481 -2.089774,2.23787 -0.789835,0.71304 -1.618065,1.33832 -2.484693,1.87586 -1.897795,1.18474 -3.598135,1.77712 -5.101025,1.77713 -0.515578,-1e-5 -0.883071,-0.13714 -1.102479,-0.41137 -0.219389,-0.26329 -0.329089,-0.63079 -0.329098,-1.10248 9e-6,-0.46075 0.274258,-1.04216 0.822745,-1.74422 0.537536,-0.69112 1.299947,-1.43159 2.287234,-2.22142 1.842956,-1.48095 4.607379,-3.25259 8.293279,-5.31494 0.03291,-0.23037 0.04936,-0.52107 0.04936,-0.87211 -2e-6,-0.34007 -0.08776,-0.6198 -0.263279,-0.8392 -0.16455,-0.2194 -0.345554,-0.3291 -0.543012,-0.3291 l -0.03291,0 c -0.340069,0.18649 -0.663682,0.35104 -0.97084,0.49365 -0.307158,0.15358 -0.564952,0.2907 -0.773381,0.41138 -0.208428,0.13163 -0.345552,0.21939 -0.411373,0.26327 -0.06582,0.0549 -0.115183,0.0987 -0.148095,0.13164 -0.06582,0.0658 -0.131637,0.0987 -0.197459,0.0987 -0.06582,0 -0.159062,-0.0384 -0.279733,-0.11518 -0.120668,-0.0658 -0.181002,-0.12067 -0.181004,-0.16455 2e-6,-0.14261 0.26328,-0.3291 0.789836,-0.55947 0.987295,-0.42783 1.755191,-0.98181 2.303688,-1.66194 0.471706,-0.58141 0.948899,-1.30543 1.431577,-2.17205 l 1.39867,-2.51761 c 0.41685,-0.75692 0.88308,-1.48093 1.39867,-2.17205 -1.19573,-0.21939 -2.08978,-0.73497 -2.68215,-1.54676 -1.031181,1.89781 -2.095264,3.29648 -3.192259,4.19601 -0.197458,0.16455 -0.329097,0.24682 -0.394918,0.24682 -0.07679,0 -0.115183,-0.0274 -0.115184,-0.0823 l 1.349303,-1.6455 c 0.734986,-0.86661 1.234118,-1.54675 1.497398,-2.04041 l 0.57592,-1.10248 c -0.24134,-0.48266 -0.362008,-0.91598 -0.362006,-1.29993 -2e-6,-0.39491 0.03839,-0.70207 0.115186,-0.92148 0.0768,-0.23036 0.18649,-0.42782 0.3291,-0.59238 0.29618,-0.38393 0.62528,-0.57591 0.98729,-0.57592 0.68013,1e-5 1.0202,0.21393 1.02021,0.64174 -1e-5,0.26329 -0.0658,0.47172 -0.19746,0.62529 -0.12068,0.15359 -0.25232,0.2962 -0.39492,0.42783 -0.40589,0.37299 -0.60884,0.70757 -0.60883,1.00375 -1e-5,0.2962 0.0494,0.55947 0.14809,0.78983 0.1097,0.21941 0.26328,0.43333 0.46074,0.64175 0.44976,0.46074 1.01471,0.77338 1.69486,0.93793 0.95437,-1.20669 1.90327,-2.08977 2.8467,-2.64925 0.95437,-0.57042 1.75518,-0.85564 2.40242,-0.85565 1.14086,10e-6 1.71129,0.31814 1.71131,0.95438 -2e-5,0.55948 -0.48269,1.14089 -1.44804,1.74422 -1.03118,0.65821 -2.19399,1.04764 -3.48844,1.1683 -1.23961,3.06062 -2.78637,5.28204 -4.64029,6.66425 -0.51559,0.38394 -1.020203,0.71304 -1.513848,0.98729 m 6.285778,-7.98063 c 1.1299,-0.15358 2.12816,-0.5101 2.9948,-1.06957 0.8337,-0.52655 1.25056,-1.03665 1.25057,-1.53031 -1e-5,-0.16454 -0.0878,-0.30166 -0.26328,-0.41137 -0.16456,-0.12066 -0.38944,-0.181 -0.67465,-0.18101 -0.27426,10e-6 -0.54851,0.0603 -0.82275,0.18101 -0.27426,0.10971 -0.55399,0.29619 -0.8392,0.55946 -0.64723,0.55948 -1.19573,1.37674 -1.64549,2.45179 m -6.05541,10.76151 -4.278278,2.56697 c -2.742481,1.7113 -4.64028,3.21967 -5.693402,4.5251 -0.559458,0.68013 -0.839192,1.32735 -0.839201,1.94168 9e-6,0.21939 0.07131,0.41685 0.213914,0.59238 0.131648,0.17551 0.389442,0.26327 0.773381,0.26328 0.383956,-1e-5 0.877603,-0.14262 1.480943,-0.42783 0.603353,-0.28523 1.245094,-0.67466 1.925225,-1.1683 0.669171,-0.48269 1.349307,-1.04764 2.04041,-1.69486 0.680139,-0.64723 1.316395,-1.33834 1.908771,-2.07332 1.316393,-1.63452 2.139138,-3.14289 2.468237,-4.5251"
         style="fill:#ffffff;fill-opacity:1"
         id="path4082" />
      <path
         d="m 116.11412,114.27438 c -1.097,0 -1.6455,-0.34007 -1.6455,-1.0202 0,-0.55947 0.31813,-1.26155 0.95439,-2.10623 l 1.03666,-1.3164 -0.16455,-0.0658 c -1.84296,2.27078 -3.58169,3.69687 -5.21621,4.27828 -0.44977,0.15358 -0.8392,0.23037 -1.1683,0.23037 -1.3493,0 -2.02395,-0.71853 -2.02395,-2.15559 0,-1.68937 0.67465,-3.30195 2.02395,-4.83775 1.99653,-2.32562 4.00403,-3.70235 6.0225,-4.13018 0.60334,-0.12066 1.11893,-0.181 1.54676,-0.18101 0.42782,1e-5 0.76241,0.0329 1.00375,0.0987 0.2523,0.0549 0.4717,0.13714 0.6582,0.24682 0.39491,0.25232 0.59237,0.56497 0.59238,0.93793 -1e-5,0.36202 -0.0658,0.70758 -0.19746,1.03666 l 1.61258,-1.99104 c 0.29618,0.0878 0.57043,0.13165 0.82275,0.13164 0.64721,1e-5 1.11343,-0.0219 1.39866,-0.0658 l -5.5453,6.6807 c -1.3164,1.53579 -1.9746,2.61633 -1.97459,3.24162 -1e-5,0.35103 0.20842,0.52655 0.62528,0.52655 0.41685,0 0.89405,-0.12615 1.43158,-0.37846 0.54849,-0.25231 1.0915,-0.57592 1.62904,-0.97084 0.53752,-0.39492 1.05859,-0.83371 1.56322,-1.31639 0.51557,-0.48268 0.98728,-0.95439 1.41512,-1.41513 0.43878,-0.46073 0.82273,-0.88856 1.15184,-1.28348 l 0.78984,-0.88857 0.34555,0.27974 -0.8392,0.95438 c -3.15935,3.653 -5.77568,5.47949 -7.84899,5.47949 m -4.55802,-5.92377 c -1.54676,1.87586 -2.32014,3.41166 -2.32014,4.60738 0,0.54849 0.24682,0.82274 0.74047,0.82274 1.60161,0 3.91078,-1.77164 6.92752,-5.31494 l 1.38221,-1.66194 c 0.65819,-0.99826 0.98729,-1.72228 0.9873,-2.17205 -1e-5,-0.76789 -0.38396,-1.15184 -1.15184,-1.15185 -1.04216,1e-5 -2.53955,0.88858 -4.4922,2.6657 -0.66917,0.61432 -1.36027,1.34931 -2.07332,2.20496"
         style="fill:#ffffff;fill-opacity:1"
         id="path4084" />
    </g>
    <g
       style="font-size:28.29794311999999934px;font-style:italic;font-variant:normal;font-weight:normal;font-stretch:normal;line-height:125%;letter-spacing:0px;word-spacing:0px;fill:#ffffff;fill-opacity:1;stroke:none;font-family:Libre Baskerville;-inkscape-font-specification:Libre Baskerville Italic"
       id="text3231">
      <path
         d="m 45.348689,72.779998 c 1.150771,2.3e-5 2.07517,0.292434 2.773199,0.877237 0.716866,0.584844 1.075307,1.358321 1.075321,2.320431 -1.4e-5,0.452786 -0.08491,0.839524 -0.254681,1.160216 -0.169802,0.301862 -0.396185,0.481082 -0.679151,0.537661 -0.320723,-0.716864 -0.764057,-1.273389 -1.330003,-1.669579 -0.565971,-0.415017 -1.20739,-0.622535 -1.92426,-0.622555 -0.867814,2e-5 -1.584694,0.292431 -2.150644,0.877236 -0.547101,0.565977 -0.820648,1.301723 -0.82064,2.20724 -8e-6,0.962146 0.320702,1.546969 0.96213,1.754473 0.452758,0.150936 0.830063,0.292426 1.131918,0.424469 0.301834,0.113206 0.53765,0.245262 0.707448,0.396171 0.169777,0.132071 0.282969,0.282993 0.339575,0.452767 0.07545,0.150936 0.113181,0.339588 0.113192,0.565959 -1.1e-5,0.415049 -0.122635,0.735758 -0.367873,0.96213 -0.226394,0.226395 -0.556536,0.339587 -0.990428,0.339575 -0.39618,1.2e-5 -0.71689,-0.08488 -0.96213,-0.254681 -0.245257,-0.169776 -0.471641,-0.348996 -0.679151,-0.537661 -0.207526,-0.207506 -0.424476,-0.396159 -0.650852,-0.565959 -0.226391,-0.169775 -0.50937,-0.254668 -0.848939,-0.254682 -0.660291,1.4e-5 -1.207384,0.330156 -1.64128,0.990428 -0.433907,0.641432 -0.650857,1.452639 -0.650853,2.433624 -4e-6,0.981004 0.207514,1.89597 0.622555,2.7449 0.433896,0.848944 1.01872,1.594123 1.754472,2.235538 0.754605,0.622558 1.63184,1.113056 2.631709,1.471493 0.99985,0.358443 2.075171,0.537663 3.225965,0.537661 1.056443,2e-6 2.056303,-0.169785 2.999582,-0.509363 0.962114,-0.339572 1.801619,-0.801772 2.518517,-1.3866 0.716863,-0.584819 1.282821,-1.263969 1.697877,-2.037452 0.415016,-0.773469 0.622534,-1.594109 0.622555,-2.461921 -2.1e-5,-0.584814 -0.10378,-1.131907 -0.311278,-1.64128 -0.207538,-0.528217 -0.490517,-0.980984 -0.848938,-1.358302 -0.339594,-0.377293 -0.75463,-0.669705 -1.24511,-0.877236 -0.471649,-0.22637 -0.990444,-0.339562 -1.556386,-0.339575 -0.924415,1.3e-5 -1.669594,0.235829 -2.235538,0.707448 -0.565972,0.45278 -0.848951,1.065901 -0.848938,1.839367 -1.3e-5,0.565969 0.141476,1.047033 0.424469,1.443195 0.301831,0.377315 0.669704,0.565967 1.10362,0.565959 0.433886,8e-6 0.650837,-0.226375 0.650852,-0.679151 -1.5e-5,-0.132047 -0.0094,-0.273537 -0.0283,-0.424469 -0.01888,-0.169778 -0.02831,-0.3207 -0.0283,-0.452767 -1.6e-5,-0.3207 0.103743,-0.584813 0.311277,-0.792343 0.207502,-0.226372 0.471616,-0.339563 0.792342,-0.339575 0.396155,1.2e-5 0.73573,0.169799 1.018726,0.509363 0.282962,0.339586 0.424452,0.754622 0.424469,1.24511 -1.7e-5,0.339584 -0.07548,0.660294 -0.226383,0.96213 -0.15094,0.282987 -0.358458,0.537669 -0.622555,0.764044 -0.264131,0.207526 -0.575408,0.377314 -0.933832,0.509363 -0.358456,0.132064 -0.735762,0.198093 -1.131918,0.198086 -0.452781,7e-6 -0.87725,-0.08489 -1.273407,-0.254682 -0.377319,-0.188645 -0.707462,-0.443326 -0.990428,-0.764044 -0.264127,-0.320702 -0.481077,-0.698007 -0.650853,-1.131918 -0.150934,-0.452757 -0.226395,-0.943254 -0.226383,-1.471493 -1.2e-5,-0.679139 0.132045,-1.301693 0.396171,-1.867664 0.282967,-0.565946 0.660272,-1.04701 1.131917,-1.443195 0.490484,-0.415022 1.065875,-0.735732 1.726175,-0.96213 0.679135,-0.226369 1.424313,-0.33956 2.235538,-0.339576 l 2.971284,0 c 1.131896,1.6e-5 2.037429,-0.2358 2.716602,-0.707448 0.679127,-0.471616 1.018702,-1.103603 1.018726,-1.895963 -2.4e-5,-0.490479 -0.150946,-0.914947 -0.452767,-1.273407 -0.301868,-0.377286 -0.641443,-0.565939 -1.018726,-0.565959 -0.320732,2e-5 -0.518818,0.103779 -0.594257,0.311278 -0.07548,0.207537 -0.141511,0.43392 -0.198085,0.67915 -0.05662,0.226402 -0.160377,0.443353 -0.311278,0.650853 -0.132078,0.207536 -0.433923,0.311295 -0.905534,0.311277 -0.452787,1.8e-5 -0.811227,-0.122606 -1.075322,-0.367873 -0.245268,-0.264096 -0.367892,-0.622536 -0.367873,-1.075322 -1.9e-5,-0.622535 0.235797,-1.113032 0.707449,-1.471493 0.471612,-0.377285 1.113031,-0.565937 1.92426,-0.565959 0.584802,2.2e-5 1.122462,0.103781 1.612982,0.311278 0.50934,0.207539 0.943241,0.490518 1.301706,0.848938 0.358415,0.35846 0.641395,0.792362 0.848938,1.301705 0.207493,0.490516 0.311252,1.028177 0.311277,1.612983 -2.5e-5,0.660302 -0.141515,1.273424 -0.424469,1.839366 -0.264139,0.547109 -0.641444,1.028173 -1.131917,1.443195 -0.471657,0.415051 -1.047047,0.745193 -1.726175,0.990428 -0.660307,0.226397 -1.38662,0.349021 -2.178942,0.367874 l -0.0566,0.113191 c 0.490477,0.301858 0.886647,0.839518 1.188513,1.612983 0.320688,0.773488 0.481043,1.64129 0.481065,2.603411 -2.2e-5,1.207386 -0.273568,2.339303 -0.82064,3.395753 -0.528249,1.056461 -1.254562,1.980859 -2.178942,2.773199 -0.924417,0.773478 -2.018603,1.3866 -3.282561,1.839366 -1.263989,0.452767 -2.612857,0.67915 -4.046606,0.679151 -1.414907,-10e-7 -2.726044,-0.216951 -3.933414,-0.650853 -1.207385,-0.433901 -2.254408,-1.028157 -3.141072,-1.782771 -0.886672,-0.754608 -1.584688,-1.641276 -2.094048,-2.660006 -0.490499,-1.037586 -0.735748,-2.16007 -0.735746,-3.367455 -2e-6,-1.660137 0.424467,-3.0656 1.273407,-4.216394 0.8678,-1.169635 2.037447,-1.943111 3.508945,-2.320431 -0.150928,-0.320695 -0.273553,-0.726299 -0.367873,-1.216812 -0.07547,-0.509346 -0.113198,-0.990411 -0.113192,-1.443195 -6e-6,-0.697998 0.122619,-1.329985 0.367873,-1.895962 0.245243,-0.584804 0.584818,-1.084734 1.018726,-1.499791 0.45276,-0.415015 0.980987,-0.735725 1.584685,-0.96213 0.622545,-0.226362 1.301695,-0.339553 2.037452,-0.339576"
         style="fill:#ffffff;fill-opacity:1"
         id="path4073" />
    </g>
  </g>
</svg>
